BROOKLYN'S FINEST.2010.DvDRip XviD

Format : AVI
Format/Info : Audio Video Interleave
File size : 748 MiB
Duration : 2h 12mn
Overall bit rate : 394 Kbps
Writing application : MEncoder SVN-r29352(20090610-gcc4.3.3)
Writing library : MPlayer

Video
ID : 0
Format : MPEG-4 Visual
Format profile : AdvancedSimple@L5
Format settings, BVOP : Yes
Format settings, QPel : No
Format settings, GMC : No warppoints
Format settings, Matrix : Default (H.263)
Codec ID : XVID
Codec ID/Hint : XviD
Duration : 2h 12mn
Bit rate : 679 Kbps
Width : 640 pixels
Height : 360 pixels
Display aspect ratio : 16:9
Frame rate : 25.000 fps
Resolution : 24 bits
Colorimetry : 4:2:0
Scan type : Progressive
Bits/(Pixel*Frame) : 0.118
Stream size : 645 MiB (86%)
Writing library : XviD 1.2.1 (UTC 2008-12-04)

Audio
ID : 1
Format : MPEG Audio
Format version : Version 2
Format profile : Layer 3
Codec ID : 55
Codec ID/Hint : MP3
Duration : 2h 12mn
Bit rate mode : Constant
Bit rate : 96.0 Kbps
Channel(s) : 2 channels
Sampling rate : 22.05 KHz
Resolution : 16 bits
Video delay : 120ms
Stream size : 91.1 MiB (12%)
Alignment : Aligned on interleaves
Interleave, duration : 26 ms (0.65 video frame)
Interleave, preload duration : 522 ms
Writing library : LAME3.98

The story revolves around three New York police officers over one week. Eddie is a patrolman played by Richard Gere who only has 7 days left before he can pull the pin and retire. Eddie has seen it all, and he has become so disenchanted with life that he must find some reason each day not to blow his own brains out. Undercover cop Tango played by Don Cheadle has been on the streets too long, causing him to protect Caz (Wesley Snipes) the drug kingpin target he is out to catch. Sal (Ethan Hawke) is a narcotics cop who is under tremendous pressure to provide a healthy home for his pregnant wife and two children. This stress from home and the temptation of all that drug money at his job is causing him to jump back and forth from being a good cop to a bad cop. In the end, all three police officers will eventually come together. Douglas Young 
http://www.imdb.com/title/tt1210042/

PLEASE SEED AND ENJOY THANKS

screen shots 
http://img293.imageshack.us/img293/346/brocklynfinestxvidvicea.jpg 
http://img707.imageshack.us/img707/5601/vlcsnap00003f.png 
http://img199.imageshack.us/img199/9739/vlcsnap00013u.png 
http://img155.imageshack.us/img155/9182/vlcsnap00017j.png 
http://img143.imageshack.us/img143/7616/vlcsnap00015z.png

My Other Torrents 
http://thepiratebay.org/user/vicerock/